<mxfile host="Electron" agent="Mozilla/5.0 (X11; Linux x86_64) AppleWebKit/537.36 (KHTML, like Gecko) draw.io/26.1.1 Chrome/132.0.6834.210 Electron/34.3.3 Safari/537.36" version="26.1.1">
  <diagram name="Page-1" id="dg9--5WRHp9zR-aQLZIH">
    <mxGraphModel dx="1114" dy="621" grid="1" gridSize="10" guides="1" tooltips="1" connect="1" arrows="1" fold="1" page="1" pageScale="1" pageWidth="827" pageHeight="1169" math="0" shadow="0">
      <root>
        <mxCell id="0" />
        <mxCell id="1" parent="0" />
        <mxCell id="h8vmdBprWBfULsSd_p-Z-2" style="edgeStyle=orthogonalEdgeStyle;rounded=0;orthogonalLoop=1;jettySize=auto;html=1;exitX=0.5;exitY=1;exitDx=0;exitDy=0;entryX=0.5;entryY=0;entryDx=0;entryDy=0;" edge="1" parent="1" source="h8vmdBprWBfULsSd_p-Z-3" target="h8vmdBprWBfULsSd_p-Z-5">
          <mxGeometry relative="1" as="geometry" />
        </mxCell>
        <mxCell id="h8vmdBprWBfULsSd_p-Z-3" value="" style="ellipse;whiteSpace=wrap;html=1;aspect=fixed;" vertex="1" parent="1">
          <mxGeometry x="209.38" y="20" width="30" height="30" as="geometry" />
        </mxCell>
        <mxCell id="h8vmdBprWBfULsSd_p-Z-4" style="edgeStyle=orthogonalEdgeStyle;rounded=0;orthogonalLoop=1;jettySize=auto;html=1;exitX=0.5;exitY=1;exitDx=0;exitDy=0;entryX=0.5;entryY=0;entryDx=0;entryDy=0;" edge="1" parent="1" source="h8vmdBprWBfULsSd_p-Z-5" target="h8vmdBprWBfULsSd_p-Z-8">
          <mxGeometry relative="1" as="geometry" />
        </mxCell>
        <mxCell id="h8vmdBprWBfULsSd_p-Z-5" value="Получить EFI_FILE_INFO из дескриптора каталога" style="rounded=0;whiteSpace=wrap;html=1;" vertex="1" parent="1">
          <mxGeometry x="134.38" y="80" width="180" height="50" as="geometry" />
        </mxCell>
        <mxCell id="h8vmdBprWBfULsSd_p-Z-6" value="Нет" style="edgeStyle=orthogonalEdgeStyle;rounded=0;orthogonalLoop=1;jettySize=auto;html=1;exitX=0.5;exitY=1;exitDx=0;exitDy=0;entryX=0.5;entryY=0;entryDx=0;entryDy=0;" edge="1" parent="1" source="h8vmdBprWBfULsSd_p-Z-8" target="h8vmdBprWBfULsSd_p-Z-22">
          <mxGeometry relative="1" as="geometry" />
        </mxCell>
        <mxCell id="h8vmdBprWBfULsSd_p-Z-7" value="Да" style="edgeStyle=orthogonalEdgeStyle;rounded=0;orthogonalLoop=1;jettySize=auto;html=1;exitX=1;exitY=0.5;exitDx=0;exitDy=0;entryX=0;entryY=0.5;entryDx=0;entryDy=0;" edge="1" parent="1" source="h8vmdBprWBfULsSd_p-Z-8" target="h8vmdBprWBfULsSd_p-Z-11">
          <mxGeometry relative="1" as="geometry" />
        </mxCell>
        <mxCell id="h8vmdBprWBfULsSd_p-Z-8" value="Есть ли еще элементы в каталоге?" style="rhombus;whiteSpace=wrap;html=1;spacingLeft=23;spacingRight=20;" vertex="1" parent="1">
          <mxGeometry x="133.76" y="163.75" width="181.25" height="90" as="geometry" />
        </mxCell>
        <mxCell id="h8vmdBprWBfULsSd_p-Z-26" value="Нет" style="edgeStyle=orthogonalEdgeStyle;rounded=0;orthogonalLoop=1;jettySize=auto;html=1;exitX=1;exitY=0.5;exitDx=0;exitDy=0;entryX=0;entryY=0.5;entryDx=0;entryDy=0;" edge="1" parent="1" source="h8vmdBprWBfULsSd_p-Z-11" target="h8vmdBprWBfULsSd_p-Z-24">
          <mxGeometry relative="1" as="geometry" />
        </mxCell>
        <mxCell id="h8vmdBprWBfULsSd_p-Z-29" value="Да" style="edgeStyle=orthogonalEdgeStyle;rounded=0;orthogonalLoop=1;jettySize=auto;html=1;exitX=0.5;exitY=1;exitDx=0;exitDy=0;entryX=0.5;entryY=0;entryDx=0;entryDy=0;" edge="1" parent="1" source="h8vmdBprWBfULsSd_p-Z-11" target="h8vmdBprWBfULsSd_p-Z-21">
          <mxGeometry relative="1" as="geometry" />
        </mxCell>
        <mxCell id="h8vmdBprWBfULsSd_p-Z-11" value="Это каталог?" style="rhombus;whiteSpace=wrap;html=1;spacingLeft=23;spacingRight=20;" vertex="1" parent="1">
          <mxGeometry x="386.25" y="163.75" width="181.25" height="90" as="geometry" />
        </mxCell>
        <mxCell id="h8vmdBprWBfULsSd_p-Z-20" style="edgeStyle=orthogonalEdgeStyle;rounded=0;orthogonalLoop=1;jettySize=auto;html=1;exitX=0;exitY=0.5;exitDx=0;exitDy=0;entryX=0;entryY=0.5;entryDx=0;entryDy=0;" edge="1" parent="1" source="h8vmdBprWBfULsSd_p-Z-21" target="h8vmdBprWBfULsSd_p-Z-5">
          <mxGeometry relative="1" as="geometry" />
        </mxCell>
        <mxCell id="h8vmdBprWBfULsSd_p-Z-21" value="Удалить EFI_FILE_INFO" style="rounded=0;whiteSpace=wrap;html=1;" vertex="1" parent="1">
          <mxGeometry x="392.5" y="370" width="168.75" height="29.37" as="geometry" />
        </mxCell>
        <mxCell id="h8vmdBprWBfULsSd_p-Z-22" value="" style="ellipse;whiteSpace=wrap;html=1;aspect=fixed;" vertex="1" parent="1">
          <mxGeometry x="209.38" y="340" width="30" height="30" as="geometry" />
        </mxCell>
        <mxCell id="h8vmdBprWBfULsSd_p-Z-27" style="edgeStyle=orthogonalEdgeStyle;rounded=0;orthogonalLoop=1;jettySize=auto;html=1;exitX=0.5;exitY=1;exitDx=0;exitDy=0;entryX=0.5;entryY=0;entryDx=0;entryDy=0;" edge="1" parent="1" source="h8vmdBprWBfULsSd_p-Z-24" target="h8vmdBprWBfULsSd_p-Z-25">
          <mxGeometry relative="1" as="geometry" />
        </mxCell>
        <mxCell id="h8vmdBprWBfULsSd_p-Z-24" value="Открыть файл на чтение и запись" style="rounded=0;whiteSpace=wrap;html=1;" vertex="1" parent="1">
          <mxGeometry x="620" y="183.75" width="160" height="50" as="geometry" />
        </mxCell>
        <mxCell id="h8vmdBprWBfULsSd_p-Z-28" style="edgeStyle=orthogonalEdgeStyle;rounded=0;orthogonalLoop=1;jettySize=auto;html=1;exitX=0.5;exitY=1;exitDx=0;exitDy=0;entryX=1;entryY=0.5;entryDx=0;entryDy=0;" edge="1" parent="1" source="h8vmdBprWBfULsSd_p-Z-25" target="h8vmdBprWBfULsSd_p-Z-21">
          <mxGeometry relative="1" as="geometry" />
        </mxCell>
        <mxCell id="h8vmdBprWBfULsSd_p-Z-25" value="Удалить файл" style="rounded=0;whiteSpace=wrap;html=1;" vertex="1" parent="1">
          <mxGeometry x="620" y="270" width="160" height="30" as="geometry" />
        </mxCell>
      </root>
    </mxGraphModel>
  </diagram>
</mxfile>
